<svg width="894" height="812" viewBox="0 0 894 812" fill="none" xmlns="http://www.w3.org/2000/svg">
<circle cx="427.5" cy="328.5" r="328.5" fill="#E9F9F4"/>
<g clip-path="url(#clip0_501_76)">
<path d="M581.759 803.149L414.346 501.311C414.299 500.573 414.07 499.857 413.68 499.228C413.291 498.599 412.752 498.075 412.112 497.704C411.377 497.283 410.538 497.081 409.693 497.12C409.666 497.118 409.639 497.119 409.612 497.118C409.584 497.119 409.557 497.118 409.53 497.12C408.385 497.066 407.263 497.457 406.4 498.212C405.536 498.966 404.998 500.025 404.897 501.167L227.465 803.149C227.169 803.661 226.977 804.226 226.899 804.812C226.822 805.398 226.861 805.994 227.013 806.565C227.166 807.136 227.43 807.671 227.79 808.14C228.15 808.609 228.598 809.003 229.11 809.298C229.622 809.594 230.187 809.785 230.774 809.863C231.36 809.94 231.955 809.901 232.526 809.747C233.097 809.594 233.632 809.33 234.101 808.97C234.57 808.61 234.963 808.161 235.259 807.649L409.492 511.113L573.965 807.649C574.26 808.161 574.653 808.61 575.122 808.97C575.591 809.33 576.126 809.594 576.697 809.747C577.268 809.901 577.864 809.94 578.45 809.863C579.036 809.785 579.601 809.594 580.113 809.298C580.625 809.003 581.073 808.609 581.433 808.14C581.793 807.671 582.057 807.136 582.21 806.565C582.363 805.994 582.401 805.398 582.324 804.812C582.247 804.226 582.054 803.661 581.759 803.149Z" fill="#3F3D56"/>
<path d="M381.871 751.362L400.794 747.02L393.053 671.967L365.125 678.374L381.871 751.362Z" fill="#FFB6B6"/>
<path d="M396.501 715.105L369.572 721.282L360.961 704.455L360.474 703.859C356.654 699.17 354.534 693.327 354.459 687.28L332.076 628.073L330.246 627.203C328.83 626.53 327.574 625.562 326.562 624.364C325.55 623.167 324.805 621.767 324.377 620.259C323.949 618.751 323.847 617.169 324.08 615.618C324.312 614.068 324.872 612.584 325.723 611.267L323.353 605L256.491 605.123L256.424 605.104L174.319 582.072L182.94 530.681L206.036 545.209C213.647 544.715 344.016 536.711 356.06 565.928C366.785 591.945 382.24 636.395 393.317 669.102C393.869 670.57 394.556 671.984 395.368 673.327C397.091 675.981 398.102 679.034 398.304 682.191C398.435 683.565 398.697 684.924 399.087 686.247C403.691 700.01 396.677 714.742 396.606 714.889L396.501 715.105Z" fill="#2F2E41"/>
<path d="M375.478 745.086L381.631 743.675L403.41 728.396L418.524 735.21L418.526 735.21C425.801 733.541 433.442 734.831 439.766 738.795C446.091 742.759 450.582 749.073 452.251 756.349L452.456 757.24L381.977 773.41L375.478 745.086Z" fill="#2F2E41"/>
<path d="M96.0851 746.772C98.009 725.831 110.275 704.865 129.949 697.438C122.794 719.159 123.552 742.71 132.09 763.925C135.412 772.095 139.958 780.836 137.35 789.261C135.728 794.504 131.479 798.611 126.667 801.249C121.854 803.886 116.463 805.243 111.139 806.574L110.112 807.48C100.984 788.536 94.1612 767.713 96.0851 746.772Z" fill="#4EB883"/>
<path d="M130.159 697.826C118.992 711.178 112.316 727.709 111.079 745.071C110.746 748.804 111.004 752.566 111.843 756.219C112.775 759.751 114.635 762.969 117.232 765.538C119.604 767.982 122.314 770.208 124.051 773.186C124.918 774.724 125.45 776.428 125.612 778.185C125.774 779.943 125.562 781.715 124.991 783.386C123.677 787.584 120.932 791.061 118.13 794.367C115.019 798.038 111.729 801.801 110.509 806.574C110.362 807.153 109.473 806.89 109.62 806.312C111.742 798.008 119.579 793.077 123.15 785.544C124.816 782.029 125.433 777.99 123.65 774.394C122.09 771.248 119.298 768.951 116.874 766.497C114.304 764.028 112.379 760.967 111.265 757.581C110.243 753.983 109.841 750.237 110.075 746.504C110.47 738.091 112.184 729.793 115.156 721.912C118.498 712.9 123.358 704.525 129.524 697.151C129.906 696.695 130.539 697.373 130.159 697.826L130.159 697.826Z" fill="white"/>
<path d="M111.148 739.457C108.263 738.854 105.687 737.245 103.879 734.918C102.07 732.591 101.148 729.697 101.277 726.752C101.284 726.632 101.336 726.519 101.424 726.437C101.512 726.356 101.629 726.311 101.749 726.313C101.869 726.315 101.984 726.364 102.068 726.449C102.153 726.534 102.202 726.649 102.204 726.769C102.079 729.51 102.938 732.206 104.626 734.37C106.315 736.534 108.721 738.023 111.41 738.568C111.995 738.688 111.729 739.576 111.148 739.457H111.148Z" fill="white"/>
<path d="M115.866 764.457C120.936 761.204 124.595 756.159 126.111 750.329C126.261 749.751 127.15 750.014 127 750.591C125.411 756.655 121.593 761.897 116.309 765.271C115.805 765.592 115.364 764.776 115.866 764.457H115.866Z" fill="white"/>
<path d="M119.386 713.75C120.454 714.216 121.62 714.409 122.781 714.313C123.942 714.216 125.061 713.833 126.037 713.198C126.536 712.87 126.976 713.686 126.48 714.012C125.398 714.709 124.162 715.13 122.88 715.24C121.598 715.349 120.308 715.143 119.124 714.639C119.008 714.601 118.912 714.52 118.854 714.413C118.795 714.306 118.78 714.181 118.811 714.063C118.846 713.946 118.926 713.847 119.034 713.788C119.142 713.729 119.268 713.716 119.386 713.75H119.386Z" fill="white"/>
<path d="M191.779 732.745C191.473 732.958 191.167 733.172 190.861 733.393C186.76 736.282 182.901 739.5 179.321 743.014C179.04 743.282 178.759 743.557 178.486 743.832C169.952 752.39 163.081 762.459 158.223 773.526C156.294 777.932 154.703 782.478 153.463 787.125C151.752 793.542 150.407 800.637 146.782 805.958C146.41 806.517 146.003 807.053 145.565 807.562L111.298 808.663C111.219 808.626 111.139 808.598 111.06 808.561L109.694 808.668C109.741 808.423 109.795 808.171 109.842 807.927C109.869 807.785 109.903 807.643 109.93 807.502C109.95 807.407 109.971 807.313 109.984 807.226C109.991 807.195 109.998 807.163 110.004 807.139C110.017 807.053 110.039 806.974 110.052 806.895C110.351 805.485 110.66 804.074 110.98 802.663C110.98 802.655 110.98 802.655 110.987 802.647C113.322 791.87 116.926 781.409 121.726 771.482C121.873 771.187 122.019 770.885 122.182 770.591C124.411 766.193 126.995 761.985 129.91 758.008C131.513 755.836 133.224 753.746 135.038 751.747C139.736 746.59 145.215 742.204 151.275 738.75C163.357 731.866 177.506 728.923 190.769 732.465C191.108 732.555 191.44 732.646 191.779 732.745Z" fill="#4EB883"/>
<path d="M191.716 733.182C174.761 737.12 159.478 746.299 148.037 759.417C145.524 762.197 143.464 765.356 141.935 768.778C140.553 772.159 140.101 775.848 140.627 779.463C141.05 782.843 141.874 786.252 141.468 789.676C141.234 791.425 140.633 793.106 139.704 794.607C138.775 796.108 137.539 797.395 136.077 798.385C132.5 800.946 128.216 802.069 123.988 803.022C119.293 804.08 114.401 805.104 110.553 808.181C110.087 808.554 109.536 807.809 110.001 807.436C116.695 802.083 125.921 802.865 133.308 799C136.754 797.197 139.679 794.344 140.42 790.398C141.068 786.948 140.222 783.432 139.764 780.013C139.199 776.495 139.505 772.891 140.654 769.518C142.004 766.029 143.938 762.796 146.373 759.957C151.753 753.477 158.118 747.884 165.236 743.381C173.331 738.197 182.252 734.436 191.615 732.261C192.195 732.126 192.292 733.049 191.716 733.182V733.182Z" fill="white"/>
<path d="M151.472 754.976C149.532 752.758 148.443 749.922 148.401 746.975C148.358 744.029 149.365 741.163 151.24 738.889C151.621 738.431 152.352 739.001 151.97 739.461C150.22 741.574 149.283 744.244 149.328 746.988C149.373 749.732 150.398 752.37 152.217 754.425C152.611 754.872 151.865 755.421 151.472 754.977V754.976Z" fill="white"/>
<path d="M140.187 777.777C146.195 778.233 152.153 776.408 156.874 772.665C157.342 772.294 157.893 773.039 157.426 773.41C152.506 777.295 146.301 779.182 140.051 778.694C139.455 778.647 139.595 777.731 140.187 777.777V777.777Z" fill="white"/>
<path d="M173.528 739.41C174.1 740.425 174.915 741.282 175.899 741.904C176.884 742.526 178.008 742.893 179.17 742.973C179.766 743.013 179.626 743.929 179.034 743.89C177.751 743.796 176.51 743.388 175.42 742.703C174.33 742.019 173.425 741.077 172.783 739.962C172.714 739.862 172.685 739.739 172.703 739.619C172.721 739.499 172.784 739.389 172.879 739.314C172.978 739.241 173.102 739.211 173.223 739.229C173.345 739.247 173.454 739.312 173.528 739.41H173.528Z" fill="white"/>
<path d="M656.735 746.772C654.811 725.831 642.545 704.865 622.871 697.438C630.026 719.159 629.268 742.71 620.731 763.925C617.408 772.095 612.863 780.836 615.47 789.261C617.093 794.504 621.341 798.611 626.154 801.249C630.966 803.886 636.357 805.243 641.681 806.574L642.708 807.48C651.837 788.536 658.659 767.713 656.735 746.772Z" fill="#4EB883"/>
<path d="M622.661 697.826C633.828 711.178 640.505 727.709 641.742 745.071C642.074 748.804 641.817 752.566 640.978 756.219C640.046 759.751 638.185 762.969 635.588 765.538C633.216 767.982 630.506 770.208 628.769 773.186C627.902 774.724 627.371 776.428 627.209 778.185C627.047 779.943 627.258 781.715 627.829 783.386C629.143 787.584 631.888 791.061 634.69 794.367C637.802 798.038 641.091 801.801 642.311 806.574C642.459 807.153 643.347 806.89 643.2 806.312C641.078 798.008 633.241 793.077 629.67 785.544C628.004 782.029 627.387 777.99 629.17 774.394C630.73 771.248 633.523 768.951 635.946 766.497C638.516 764.028 640.441 760.967 641.555 757.581C642.577 753.983 642.98 750.237 642.745 746.504C642.351 738.091 640.636 729.793 637.664 721.912C634.322 712.9 629.462 704.525 623.296 697.151C622.914 696.695 622.282 697.373 622.661 697.826L622.661 697.826Z" fill="white"/>
<path d="M641.672 739.457C644.557 738.854 647.134 737.245 648.942 734.918C650.75 732.591 651.672 729.696 651.543 726.752C651.537 726.632 651.484 726.519 651.396 726.437C651.308 726.355 651.192 726.311 651.072 726.313C650.951 726.315 650.837 726.364 650.752 726.449C650.667 726.534 650.618 726.648 650.616 726.769C650.741 729.51 649.882 732.206 648.194 734.37C646.506 736.534 644.1 738.023 641.41 738.568C640.826 738.688 641.091 739.576 641.672 739.457V739.457Z" fill="white"/>
<path d="M636.955 764.457C631.884 761.204 628.225 756.159 626.709 750.329C626.559 749.751 625.67 750.014 625.82 750.591C627.409 756.655 631.227 761.897 636.511 765.271C637.015 765.592 637.456 764.776 636.955 764.457H636.955Z" fill="white"/>
<path d="M633.434 713.75C632.366 714.216 631.2 714.409 630.039 714.313C628.878 714.216 627.76 713.833 626.783 713.198C626.284 712.87 625.844 713.686 626.34 714.012C627.422 714.709 628.658 715.13 629.94 715.24C631.223 715.349 632.512 715.143 633.696 714.639C633.812 714.601 633.909 714.52 633.967 714.413C634.025 714.306 634.04 714.181 634.01 714.063C633.974 713.946 633.894 713.847 633.786 713.788C633.678 713.729 633.552 713.716 633.434 713.75H633.434Z" fill="white"/>
<path d="M561.041 732.745C561.347 732.958 561.653 733.172 561.96 733.393C566.06 736.282 569.92 739.5 573.499 743.014C573.78 743.282 574.061 743.557 574.334 743.832C582.868 752.39 589.739 762.459 594.597 773.526C596.527 777.932 598.118 782.478 599.357 787.125C601.069 793.542 602.414 800.637 606.039 805.958C606.411 806.517 606.817 807.053 607.255 807.562L641.523 808.663C641.602 808.626 641.681 808.598 641.761 808.561L643.127 808.668C643.08 808.423 643.025 808.171 642.978 807.927C642.951 807.785 642.917 807.643 642.89 807.502C642.87 807.407 642.849 807.313 642.836 807.226C642.83 807.195 642.823 807.163 642.816 807.139C642.803 807.053 642.782 806.974 642.769 806.895C642.47 805.485 642.16 804.074 641.84 802.663C641.841 802.655 641.841 802.655 641.833 802.647C639.499 791.87 635.894 781.409 631.095 771.482C630.948 771.187 630.801 770.885 630.638 770.591C628.409 766.193 625.825 761.985 622.911 758.008C621.308 755.836 619.596 753.746 617.782 751.747C613.085 746.59 607.605 742.204 601.545 738.75C589.463 731.866 575.314 728.923 562.052 732.465C561.712 732.555 561.38 732.646 561.041 732.745Z" fill="#4EB883"/>
<path d="M561.104 733.182C578.059 737.12 593.343 746.299 604.784 759.417C607.297 762.197 609.356 765.356 610.885 768.778C612.267 772.159 612.719 775.848 612.193 779.463C611.77 782.843 610.946 786.252 611.353 789.676C611.587 791.425 612.188 793.106 613.117 794.607C614.046 796.108 615.281 797.395 616.743 798.385C620.32 800.946 624.605 802.069 628.833 803.022C633.527 804.08 638.42 805.104 642.267 808.181C642.733 808.554 643.284 807.809 642.819 807.436C636.125 802.083 626.899 802.865 619.513 799C616.066 797.197 613.142 794.344 612.4 790.398C611.752 786.948 612.598 783.432 613.056 780.013C613.621 776.495 613.316 772.891 612.167 769.518C610.816 766.029 608.882 762.796 606.447 759.957C601.067 753.477 594.702 747.883 587.585 743.381C579.49 738.197 570.568 734.436 561.205 732.261C560.625 732.126 560.528 733.049 561.104 733.182V733.182Z" fill="white"/>
<path d="M601.348 754.976C603.289 752.758 604.377 749.922 604.42 746.975C604.462 744.029 603.456 741.163 601.58 738.889C601.199 738.431 600.468 739.001 600.85 739.461C602.6 741.574 603.538 744.244 603.493 746.988C603.447 749.732 602.423 752.37 600.604 754.425C600.209 754.872 600.956 755.421 601.348 754.977V754.976Z" fill="white"/>
<path d="M612.633 777.777C606.626 778.233 600.667 776.408 595.946 772.665C595.479 772.294 594.927 773.039 595.394 773.41C600.315 777.295 606.519 779.182 612.769 778.694C613.365 778.647 613.226 777.731 612.633 777.777V777.777Z" fill="white"/>
<path d="M579.293 739.41C578.721 740.425 577.906 741.282 576.921 741.904C575.936 742.526 574.812 742.893 573.65 742.973C573.054 743.013 573.194 743.929 573.786 743.89C575.07 743.796 576.311 743.388 577.4 742.703C578.49 742.019 579.395 741.077 580.037 739.962C580.107 739.862 580.135 739.739 580.118 739.619C580.1 739.499 580.037 739.389 579.941 739.314C579.842 739.241 579.719 739.211 579.597 739.229C579.476 739.247 579.366 739.312 579.293 739.41H579.293Z" fill="white"/>
<path d="M893.68 810.34C893.679 810.655 893.554 810.957 893.331 811.18C893.108 811.403 892.806 811.529 892.49 811.53H1.19049C0.874883 811.53 0.572198 811.405 0.34903 811.181C0.125861 810.958 0.000488281 810.656 0.000488281 810.34C0.000488281 810.024 0.125861 809.722 0.34903 809.498C0.572198 809.275 0.874883 809.15 1.19049 809.15H892.49C892.806 809.151 893.108 809.276 893.331 809.499C893.554 809.722 893.679 810.025 893.68 810.34V810.34Z" fill="#3F3D56"/>
<path d="M574.112 350C576.597 350 578.612 347.985 578.612 345.5C578.612 343.015 576.597 341 574.112 341C571.626 341 569.612 343.015 569.612 345.5C569.612 347.985 571.626 350 574.112 350Z" fill="#3F3D56"/>
<path d="M517.763 380.162L578.43 342.048C578.978 341.703 579.592 341.473 580.232 341.371C580.872 341.27 581.526 341.3 582.154 341.458C582.783 341.617 583.373 341.901 583.888 342.294C584.404 342.687 584.834 343.18 585.154 343.744C585.474 344.308 585.675 344.93 585.748 345.575C585.82 346.219 585.761 346.871 585.574 347.491C585.387 348.112 585.076 348.688 584.66 349.185C584.245 349.683 583.732 350.09 583.154 350.384L519.286 382.849C518.931 383.029 518.521 383.066 518.14 382.951C517.759 382.836 517.437 382.579 517.241 382.233C517.044 381.887 516.989 381.479 517.086 381.093C517.184 380.707 517.426 380.374 517.763 380.162V380.162Z" fill="#E4E4E4"/>
<path d="M396.053 462.232C395.575 461.521 395.325 460.682 395.338 459.826C395.35 458.97 395.624 458.138 396.122 457.441C397.149 456.067 398.515 454.983 400.088 454.296C403.334 452.644 406.831 451.539 410.437 451.026C413.177 450.637 416.168 450.513 418.294 448.74C420.405 446.979 421.583 443.686 424.319 443.412C426.964 443.146 428.997 446.041 431.65 446.221C434.919 446.442 437.059 442.616 440.241 441.831C442.37 441.306 444.56 442.233 446.557 443.139L458.544 448.577L464.689 451.365C466.835 452.338 469.255 453.65 469.66 455.971C470.217 459.161 466.67 461.412 463.636 462.544C441.976 470.538 418.174 470.541 396.511 462.553" fill="#4EB883"/>
<path d="M414.112 521C501.096 521 571.612 510.926 571.612 498.5C571.612 486.074 501.096 476 414.112 476C327.127 476 256.612 486.074 256.612 498.5C256.612 510.926 327.127 521 414.112 521Z" fill="#3F3D56"/>
<path d="M733.612 638H625.612C620.641 638 616.612 642.029 616.612 647C616.612 651.971 620.641 656 625.612 656H733.612C738.582 656 742.612 651.971 742.612 647C742.612 642.029 738.582 638 733.612 638Z" fill="#3F3D56"/>
<path d="M785.951 477.54L750.282 646.99L759.572 690.36L777.112 772.21V809C777.113 809.05 777.11 809.1 777.102 809.15C777.096 809.963 776.946 810.769 776.661 811.53H762.562C762.277 810.769 762.128 809.963 762.121 809.15C762.113 809.1 762.11 809.05 762.112 809V773.79L746.192 699.5L742.971 684.5L736.741 655.43L734.942 647.01V647L736.721 638.56L738.092 632.05L771.272 474.46C771.473 473.495 771.863 472.58 772.418 471.766C772.974 470.952 773.684 470.255 774.509 469.716C775.334 469.177 776.257 468.805 777.225 468.623C778.194 468.44 779.189 468.451 780.153 468.653C781.118 468.855 782.033 469.246 782.846 469.802C783.66 470.358 784.356 471.069 784.894 471.895C785.433 472.72 785.803 473.643 785.985 474.612C786.166 475.581 786.155 476.576 785.951 477.54L785.951 477.54Z" fill="#3F3D56"/>
<path d="M633.112 647V809C633.113 809.05 633.11 809.1 633.102 809.15C633.096 809.963 632.947 810.769 632.661 811.53H618.562C618.277 810.769 618.128 809.963 618.121 809.15C618.113 809.1 618.11 809.05 618.112 809V647C618.112 645.011 618.902 643.103 620.308 641.697C621.715 640.29 623.622 639.5 625.612 639.5C627.601 639.5 629.508 640.29 630.915 641.697C632.321 643.103 633.112 645.011 633.112 647Z" fill="#3F3D56"/>
<path d="M643.612 620H715.612C722.772 620 729.64 622.845 734.703 627.908C739.767 632.972 742.612 639.839 742.612 647V647H616.612C616.612 639.839 619.456 632.972 624.52 627.908C629.583 622.845 636.451 620 643.612 620V620Z" fill="#3F3D56"/>
<path d="M751.612 699.5H625.612C623.622 699.5 621.715 698.71 620.308 697.303C618.902 695.897 618.112 693.989 618.112 692C618.112 690.011 618.902 688.103 620.308 686.697C621.715 685.29 623.622 684.5 625.612 684.5H751.612C753.601 684.5 755.508 685.29 756.915 686.697C758.321 688.103 759.112 690.011 759.112 692C759.112 693.989 758.321 695.897 756.915 697.303C755.508 698.71 753.601 699.5 751.612 699.5Z" fill="#3F3D56"/>
<path d="M165.521 656.273H292.612C297.582 656.273 301.612 652.243 301.612 647.273V644.545C301.612 639.575 297.582 635.545 292.612 635.545H165.521C160.55 635.545 156.521 639.575 156.521 644.545V647.273C156.521 652.243 160.55 656.273 165.521 656.273Z" fill="#3F3D56"/>
<path d="M164.212 646.03L161.911 655.51L153.471 690.23L149.832 705.23L132.931 774.81V805C132.936 806.478 132.497 807.924 131.672 809.15C131.023 810.142 130.14 810.959 129.102 811.53H121.761C120.723 810.959 119.841 810.142 119.192 809.15C118.366 807.924 117.927 806.478 117.931 805V773.01L136.712 695.71L148.832 645.79L107.732 450.54C107.528 449.576 107.517 448.582 107.698 447.614C107.879 446.646 108.249 445.723 108.787 444.898C109.325 444.073 110.021 443.362 110.834 442.806C111.647 442.25 112.561 441.86 113.525 441.657C114.489 441.455 115.483 441.444 116.451 441.627C117.419 441.809 118.342 442.18 119.166 442.719C119.99 443.258 120.7 443.954 121.256 444.767C121.811 445.581 122.2 446.496 122.402 447.46L160.392 627.89L162.142 636.21L164.181 645.91L164.212 646.03Z" fill="#3F3D56"/>
<path d="M298.752 645.91V805C298.756 806.478 298.317 807.924 297.491 809.15C296.843 810.142 295.96 810.959 294.922 811.53H287.572C286.538 810.956 285.659 810.139 285.012 809.15C284.186 807.924 283.747 806.478 283.752 805V645.91C283.752 643.921 284.542 642.013 285.948 640.607C287.355 639.2 289.263 638.41 291.252 638.41C293.241 638.41 295.149 639.2 296.555 640.607C297.962 642.013 298.752 643.921 298.752 645.91Z" fill="#3F3D56"/>
<path d="M301.612 645.909H156.521V641.818C156.521 638.273 157.219 634.762 158.576 631.486C159.933 628.21 161.922 625.234 164.429 622.726C166.936 620.219 169.912 618.23 173.188 616.873C176.464 615.517 179.975 614.818 183.521 614.818H274.612C281.773 614.818 288.64 617.663 293.704 622.726C298.767 627.79 301.612 634.657 301.612 641.818V645.909H301.612Z" fill="#3F3D56"/>
<path d="M291.248 705.227H146.157C144.168 705.227 142.26 704.437 140.854 703.03C139.447 701.624 138.657 699.716 138.657 697.727C138.657 695.738 139.447 693.83 140.854 692.424C142.26 691.017 144.168 690.227 146.157 690.227H291.248C293.237 690.227 295.145 691.017 296.551 692.424C297.958 693.83 298.748 695.738 298.748 697.727C298.748 699.716 297.958 701.624 296.551 703.03C295.145 704.437 293.237 705.227 291.248 705.227Z" fill="#3F3D56"/>
<path d="M477.713 770.651L461.95 763.112L483.603 697.223L506.869 708.349L477.713 770.651Z" fill="#9E616A"/>
<path d="M584.542 764.683L567.592 768.865L543.033 704.018L568.051 697.845L584.542 764.683Z" fill="#9E616A"/>
<path d="M519.575 484.267C521.823 487.919 525.41 490.547 529.569 491.59C533.729 492.634 538.131 492.01 541.837 489.852C542.582 489.401 543.289 488.889 543.949 488.321L593.786 516.921L591.621 487.563L544.627 464.905C542.07 462.336 538.733 460.689 535.139 460.221C531.545 459.753 527.897 460.49 524.768 462.318C522.966 463.4 521.399 464.832 520.158 466.528C518.918 468.225 518.03 470.153 517.546 472.198C517.062 474.244 516.992 476.365 517.341 478.438C517.689 480.511 518.449 482.493 519.575 484.267V484.267Z" fill="#9E616A"/>
<path d="M572.36 506.152L581.169 511.52L620.733 535.646C623.332 537.272 626.226 538.37 629.249 538.877C632.272 539.384 635.366 539.29 638.353 538.601C641.34 537.911 644.162 536.64 646.657 534.859C649.152 533.078 651.272 530.823 652.895 528.223C655.825 523.396 656.861 517.656 655.805 512.11L638.22 424.257C637.571 420.809 636.184 417.541 634.155 414.677C632.126 411.814 629.503 409.422 626.465 407.665C623.426 405.909 620.045 404.829 616.551 404.5C613.057 404.171 609.533 404.6 606.22 405.759C600.652 407.715 596.038 411.72 593.318 416.958C590.597 422.196 589.974 428.273 591.576 433.954L609.964 496.301L581.779 483.161L572.36 506.152Z" fill="#E6E6E6"/>
<path d="M551.531 746.51L524.407 692.111L524.41 691.987L527.088 592.21C527.122 591.323 527.194 590.432 527.302 589.555C527.775 585.554 529.04 581.688 531.022 578.181C533.005 574.674 535.666 571.597 538.85 569.129C541.9 566.743 545.394 564.988 549.129 563.967C552.863 562.945 556.764 562.678 560.604 563.18L638.164 573.217L640.854 562.218L641.354 562.036L715.669 534.8L716.097 535.498C725.83 551.334 732.634 582.967 734.487 592.285L734.514 592.419C734.553 592.616 734.576 592.735 734.584 592.77C738.41 608.67 722.603 635.011 706.855 638.97C673.685 647.424 644.02 640.83 609.67 633.192C597.352 630.452 584.623 627.621 570.601 625.173L571.017 633.426C571.359 639.778 572.679 646.039 574.93 651.988C577.43 659.311 579.405 665.094 575.229 677.153L573.209 682.987C574.256 685.883 574.617 688.983 574.262 692.042C573.907 695.101 572.847 698.036 571.164 700.616L570.758 701.236L588.645 746.5L551.531 746.51Z" fill="#2F2E41"/>
<path d="M506.965 722.453L474.62 719.447L486.079 682.8C488.444 658.871 494.403 635.435 503.754 613.283L519.384 576.241C519.42 575.416 519.49 574.587 519.59 573.774C520.063 569.773 521.328 565.907 523.31 562.4C525.293 558.893 527.954 555.816 531.138 553.349C534.188 550.963 537.683 549.209 541.417 548.188C545.152 547.167 549.052 546.899 552.892 547.4L630.337 557.422L633.71 529.111L708.045 519.164L708.385 519.718C721.378 540.858 729.627 557.408 734.344 571.801C734.581 572.535 734.792 573.284 734.971 574.03C738.823 590.039 729.208 606.269 713.537 610.209C673.602 620.391 625.58 620.108 562.441 609.315L531.884 682.035C528.963 688.981 525.347 695.613 521.091 701.831L506.965 722.453Z" fill="#2F2E41"/>
<path d="M619.789 355.339C640.482 355.339 657.257 338.191 657.257 317.037C657.257 295.883 640.482 278.734 619.789 278.734C599.097 278.734 582.322 295.883 582.322 317.037C582.322 338.191 599.097 355.339 619.789 355.339Z" fill="#9E616A"/>
<path d="M630.608 558.759L625.232 539.5L623.91 530L616.183 530.258L601.018 495.254L595.128 486.024C593.927 484.76 592.839 483.543 591.864 482.376C585.726 475.439 580.805 467.515 577.308 458.938C574.858 452.776 573.419 446.259 573.048 439.638C571.948 420.08 580.193 399.388 598.253 376.383C597.957 375.569 597.76 374.722 597.665 373.861C597.342 371.066 598.136 368.257 599.873 366.045C601.611 363.832 604.152 362.395 606.943 362.047L624.362 360.091C625.717 359.937 627.089 360.055 628.397 360.436C629.706 360.818 630.926 361.456 631.986 362.313C633.092 363.2 634.011 364.299 634.689 365.544C635.367 366.79 635.79 368.158 635.934 369.569C636.167 371.751 635.738 373.953 634.702 375.888C643.581 377.015 651.946 380.68 658.795 386.443C665.643 392.205 670.683 399.821 673.312 408.377C683.735 427.835 692.043 448.354 698.093 469.583C699.285 473.741 698.754 478.025 698.24 482.168C697.766 485.996 697.276 489.953 698.101 493.897C698.94 497.909 700.958 501.934 703.095 506.194C705.542 511.074 708.073 516.12 708.757 521.264L708.805 521.625L630.608 558.759Z" fill="#E4E4E4"/>
<path opacity="0.2" d="M577.771 458.749C581.253 467.276 586.146 475.155 592.247 482.055C593.292 483.302 594.395 484.528 595.55 485.756L601.477 495.055C623.325 478.679 641.027 414.198 641.027 414.198L616.376 409.402L577.771 458.749Z" fill="black"/>
<path d="M562.847 358.917C565.006 362.625 565.632 367.029 564.594 371.192C563.555 375.355 560.933 378.948 557.285 381.207C556.537 381.655 555.752 382.039 554.94 382.357L556.685 439.792L531.813 424.135L533.969 371.994C532.911 368.525 533.031 364.802 534.311 361.408C535.59 358.014 537.958 355.139 541.043 353.231C542.841 352.144 544.838 351.428 546.916 351.126C548.995 350.823 551.113 350.941 553.146 351.471C555.178 352.001 557.084 352.933 558.75 354.212C560.417 355.491 561.81 357.091 562.847 358.917V358.917Z" fill="#9E616A"/>
<path d="M558.871 418.112L531.519 422.002L532.695 478.643C532.763 482.684 533.864 486.64 535.891 490.136C537.919 493.631 540.807 496.55 544.281 498.615V498.615C548.525 501.112 553.466 502.162 558.358 501.607C563.25 501.051 567.83 498.921 571.406 495.536L635.981 433.424C640.524 429.114 643.244 423.226 643.579 416.973C643.915 410.719 641.841 404.575 637.785 399.803V399.803C635.778 397.427 633.314 395.479 630.54 394.074C627.765 392.668 624.736 391.835 621.634 391.622C618.531 391.41 615.417 391.823 612.477 392.837C609.536 393.851 606.83 395.445 604.518 397.525C603.879 398.096 603.273 398.7 602.699 399.336L560.06 448.389L558.871 418.112Z" fill="#E6E6E6"/>
<path d="M330.104 787.568L349.518 787.567L358.754 712.683L330.101 712.684L330.104 787.568Z" fill="#FFB6B6"/>
<path d="M220.061 356.451C241.461 356.451 258.809 339.103 258.809 317.703C258.809 296.302 241.461 278.954 220.061 278.954C198.661 278.954 181.312 296.302 181.312 317.703C181.312 339.103 198.661 356.451 220.061 356.451Z" fill="#FFB6B6"/>
<path d="M355.854 764.5H328.362L321.353 755.105L319.456 746.253L317.823 744.673C315.608 742.547 314.176 739.735 313.759 736.693C313.342 733.651 313.964 730.557 315.525 727.913L295.6 634.952C290.382 634.493 231.531 629.231 190.622 621.991C180.152 620.138 171.978 615.049 166.327 606.865C152.439 586.754 158.388 554.214 158.449 553.888L158.518 553.525L158.885 553.483L254.44 542.758L254.568 542.819C257.739 544.321 332.37 579.751 344.565 591.947C350.073 597.454 362.359 630.174 365.11 664.96C365.603 671.192 363.83 677.539 362.115 683.676C360.51 689.419 358.851 695.357 359.179 700.971C359.685 709.632 360.164 718.718 360.604 727.976C360.674 729.451 361.786 730.978 362.86 732.454C363.983 733.997 365.044 735.453 365.111 736.978C365.764 751.762 356.102 764.186 356.004 764.31L355.854 764.5Z" fill="#2F2E41"/>
<path d="M362.114 420.909C360.033 420.34 357.852 420.234 355.725 420.599C353.598 420.964 351.577 421.791 349.804 423.021C348.032 424.252 346.55 425.856 345.465 427.721C344.379 429.586 343.716 431.667 343.521 433.816L311.326 443.878L312.669 464.935L357.935 450.086C361.567 450.174 365.105 448.926 367.879 446.579C370.653 444.233 372.469 440.95 372.984 437.354C373.499 433.757 372.677 430.097 370.674 427.066C368.671 424.035 365.625 421.844 362.114 420.909V420.909Z" fill="#FFB6B6"/>
<path d="M341.108 455.753L317.046 464.86L316.431 466.054C314.955 468.916 312.404 471.074 309.337 472.055C306.27 473.035 302.94 472.758 300.078 471.282V471.282L245.993 491.753C245.993 491.753 221.84 467.582 204.644 446.012L210.505 409.964C211.862 401.6 214.747 393.557 219.016 386.238C254.282 393.971 274.526 443.27 274.526 443.27L338.084 431.143L341.108 455.753Z" fill="#4EB883"/>
<path d="M214.555 354.38C204.854 357 194.159 353.517 186.589 346.909C179.019 340.302 174.283 330.94 171.554 321.269C169.556 314.186 168.608 306.324 171.762 299.675C174.915 293.026 183.403 288.54 189.951 291.899C185.911 287.193 187.929 279.409 192.647 275.383C197.365 271.357 203.843 270.203 210.013 269.572C218.967 268.656 228.216 268.553 236.737 271.454C245.257 274.355 252.999 280.697 255.666 289.294C258.389 290.562 261.456 290.891 264.387 290.229C267.317 289.568 269.946 287.953 271.86 285.638C272.354 288.297 271.957 291.044 270.732 293.455C269.507 295.867 267.521 297.807 265.083 298.976L278.138 294.743C280.383 299.495 276.449 305.377 271.418 306.899C266.387 308.421 260.956 306.758 256.182 304.559C251.408 302.36 246.782 299.58 241.596 298.723C236.41 297.865 230.319 299.532 227.92 304.208C226.664 306.658 226.598 309.527 225.869 312.181C225.14 314.836 223.292 317.588 220.547 317.805C218.814 317.943 217.116 317.019 215.387 317.208C213.243 317.442 211.603 319.384 211.032 321.463C210.601 323.582 210.596 325.766 211.016 327.887L214.333 353.235" fill="#2F2E41"/>
<path d="M166.549 611.495C166.542 611.495 166.534 611.494 166.527 611.493L166.221 611.44L166.132 611.143C165.018 607.396 163.601 603.56 162.23 599.851C160.211 594.713 158.506 589.458 157.125 584.114C156.038 579.005 155.284 573.831 154.868 568.624C154.486 564.843 154.091 560.934 153.418 557.086C153.119 555.377 154.251 553.759 155.345 552.194C156.36 550.744 157.319 549.373 157.117 548.077C156.912 546.751 155.442 545.295 154.02 543.887C152.461 542.343 150.85 540.747 150.622 539.067C147.515 516.147 146.07 493.032 146.296 469.904C146.617 437.903 148.063 416.091 150.594 405.073C157.4 375.446 188.843 370.039 193.764 369.372C194.289 367.975 195.095 366.702 196.132 365.631C197.17 364.559 198.417 363.713 199.795 363.145C201.174 362.576 202.655 362.297 204.146 362.326C205.637 362.354 207.107 362.689 208.463 363.31L230.803 373.537C235.335 375.619 239.39 378.61 242.717 382.326C246.044 386.041 248.571 390.401 250.141 395.134L253.46 405.252L255.123 473.171L245.91 521L263.91 548C167.976 600.67 166.858 611.495 166.549 611.495Z" fill="#4EB883"/>
<path d="M319.657 780.022L325.969 780.022L350.613 770L363.821 780.021H363.823C371.287 780.021 378.446 782.986 383.724 788.264C389.002 793.542 391.967 800.701 391.968 808.165V809.08L319.658 809.082L319.657 780.022Z" fill="#2F2E41"/>
<path d="M370.175 469.376C368.314 468.284 366.237 467.613 364.088 467.41C361.94 467.208 359.773 467.479 357.741 468.204C355.708 468.93 353.86 470.092 352.325 471.609C350.791 473.126 349.607 474.962 348.859 476.985L315.153 478.3L310.612 494L358.529 496.453C362.012 497.485 365.753 497.204 369.043 495.662C372.333 494.12 374.943 491.425 376.379 488.088C377.814 484.75 377.976 481.002 376.832 477.553C375.689 474.105 373.321 471.195 370.175 469.376V469.376Z" fill="#FFB6B6"/>
<path d="M342.489 498.146L307.866 497.714L303.484 497.655L233.043 496.767C233.043 496.767 213.914 478.518 197.258 459.729L199.592 442.843C201.869 426.271 210.09 411.091 222.724 400.127C246.58 416.068 260.415 447.62 260.415 447.62L283.612 458C299.936 458.73 315.844 463.389 329.983 471.581L337.612 476L342.489 498.146Z" fill="#4EB883"/>
<path d="M596.91 796.624L585.39 799.467L580.65 789.098L578.068 801.274L547.514 808.815C546.049 809.176 544.507 809.06 543.114 808.483C541.72 807.907 540.547 806.899 539.766 805.609C538.985 804.318 538.637 802.812 538.773 801.309C538.909 799.807 539.521 798.387 540.521 797.258L560.762 774.385L558.048 763.39L584.09 758.588L596.91 796.624Z" fill="#2F2E41"/>
<path d="M474.869 800.179L463.883 795.695L466.155 784.523L456.9 792.845L427.763 780.952C426.366 780.382 425.188 779.38 424.401 778.093C423.614 776.807 423.259 775.302 423.388 773.799C423.516 772.296 424.122 770.873 425.116 769.739C426.111 768.604 427.441 767.818 428.915 767.493L458.742 760.921L463.022 750.436L486.899 761.886L474.869 800.179Z" fill="#2F2E41"/>
<path d="M436.612 494.5H427.612C417.935 494.489 408.657 490.64 401.814 483.797C394.972 476.955 391.123 467.677 391.112 458V457.5H473.112V458C473.101 467.677 469.252 476.955 462.409 483.797C455.566 490.64 446.289 494.489 436.612 494.5V494.5Z" fill="#E4E4E4"/>
<path d="M427.612 444.5C427.612 446.985 423.112 449 423.112 449C423.112 449 418.612 446.985 418.612 444.5C418.612 442.015 423.112 440 423.112 440C423.112 440 427.612 442.015 427.612 444.5Z" fill="#3F3D56"/>
<path d="M454.612 444.5C454.612 446.985 450.112 449 450.112 449C450.112 449 445.612 446.985 445.612 444.5C445.612 442.015 450.112 440 450.112 440C450.112 440 454.612 442.015 454.612 444.5Z" fill="#3F3D56"/>
<path d="M436.612 453.5C436.612 455.985 432.112 458 432.112 458C432.112 458 427.612 455.985 427.612 453.5C427.612 451.015 432.112 449 432.112 449C432.112 449 436.612 451.015 436.612 453.5Z" fill="#3F3D56"/>
<path d="M405.112 435C407.597 435 409.612 432.985 409.612 430.5C409.612 428.015 407.597 426 405.112 426C402.626 426 400.612 428.015 400.612 430.5C400.612 432.985 402.626 435 405.112 435Z" fill="#3F3D56"/>
<path d="M339.666 420.829L410.639 430.631C411.281 430.72 411.898 430.938 412.454 431.271C413.009 431.605 413.491 432.048 413.871 432.574C414.25 433.099 414.519 433.696 414.662 434.328C414.804 434.961 414.817 435.615 414.699 436.253C414.582 436.89 414.336 437.497 413.977 438.037C413.618 438.577 413.154 439.038 412.612 439.393C412.07 439.749 411.461 439.99 410.823 440.104C410.185 440.218 409.53 440.201 408.899 440.054L339.105 423.867C338.718 423.777 338.38 423.541 338.161 423.208C337.943 422.875 337.862 422.471 337.934 422.08C338.006 421.689 338.227 421.34 338.549 421.107C338.872 420.874 339.272 420.775 339.666 420.829V420.829Z" fill="#E4E4E4"/>
<path d="M425.91 197.213V62H416.91V197.213C404.613 198.335 393.18 204.013 384.854 213.132C376.528 222.25 371.912 234.152 371.91 246.5V260H403.41C403.41 264.774 405.307 269.352 408.682 272.728C412.058 276.104 416.636 278 421.41 278C426.184 278 430.762 276.104 434.138 272.728C437.514 269.352 439.41 264.774 439.41 260H470.91V246.5C470.909 234.152 466.292 222.25 457.966 213.132C449.641 204.013 438.207 198.335 425.91 197.213V197.213Z" fill="white"/>
<path d="M541.785 163.41V62H535.035V163.41C525.812 164.251 517.237 168.509 510.993 175.349C504.749 182.188 501.286 191.114 501.285 200.375V210.5H524.91C524.91 214.08 526.332 217.514 528.864 220.046C531.396 222.578 534.83 224 538.41 224C541.991 224 545.424 222.578 547.956 220.046C550.488 217.514 551.91 214.08 551.91 210.5H575.535V200.375C575.534 191.114 572.072 182.188 565.827 175.349C559.583 168.509 551.008 164.251 541.785 163.41V163.41Z" fill="white"/>
<path d="M313.785 163.41V62H307.035V163.41C297.812 164.251 289.237 168.509 282.993 175.349C276.749 182.188 273.286 191.114 273.285 200.375V210.5H296.91C296.91 214.08 298.332 217.514 300.864 220.046C303.396 222.578 306.83 224 310.41 224C313.991 224 317.424 222.578 319.956 220.046C322.488 217.514 323.91 214.08 323.91 210.5H347.535V200.375C347.534 191.114 344.072 182.188 337.827 175.349C331.583 168.509 323.008 164.251 313.785 163.41V163.41Z" fill="white"/>
<path d="M720.048 300.425C713.68 292.998 710.652 283.145 705.561 274.711C700.469 266.277 691.609 258.729 682.25 260.692C675.797 262.045 670.811 267.738 668.287 274.086C665.763 280.433 665.29 287.433 664.847 294.291C665.003 280.198 655.719 266.536 642.929 262.04C630.14 257.543 614.834 262.559 606.797 273.881C603.29 270.63 598.712 268.779 593.931 268.679C589.15 268.578 584.499 270.236 580.858 273.336C573.67 279.761 572.079 291.989 577.366 300.184C582.652 308.379 594.102 311.432 602.503 306.887L605.473 309.619C603.801 315.467 607.044 322.374 612.494 324.575C616.913 326.361 623.152 326.063 624.806 330.701C625.962 333.942 623.802 337.401 621.504 339.891C619.207 342.381 616.479 344.953 616.203 348.399C615.786 353.598 621.159 357.241 626.043 358.338C637.82 360.983 650.888 355.529 657.676 345.135C657.807 344.935 657.949 344.734 658.103 344.533C661.912 339.663 664.687 334.067 666.26 328.088C667.833 322.109 668.17 315.872 667.251 309.758C666.869 307.356 667.254 305.569 668.91 305C676.069 302.541 696.126 307.702 702.195 312.366C708.266 317.031 713.127 323.204 718.973 328.169C724.82 333.134 732.271 336.964 739.695 335.612C745.641 334.529 750.699 330.213 754.101 325.006C757.503 319.799 759.461 313.73 761.215 307.699C748.067 315.294 730.073 312.115 720.048 300.425Z" fill="#2F2E41"/>
</g>
<defs>
<clipPath id="clip0_501_76">
<rect width="893.68" height="749.53" fill="white" transform="translate(0 62)"/>
</clipPath>
</defs>
</svg>
